name Walk6.mot
datacolumns 19
datarows 27
range 3.02000000 3.15000000
endheader

                time	   L_ground_force_vx	   L_ground_force_vy	   L_ground_force_vz	   L_ground_force_px	   L_ground_force_py	   L_ground_force_pz	   R_ground_force_vx	   R_ground_force_vy	   R_ground_force_vz	   R_ground_force_px	   R_ground_force_py	   R_ground_force_pz	   L_ground_torque_x	   L_ground_torque_y	   L_ground_torque_z	   R_ground_torque_x	   R_ground_torque_y	   R_ground_torque_z	
          3.02000000	          0.02718361	          0.08155191	          0.00640556	         -0.00006004	          0.00000000	         -0.00009326	        -26.54422805	        904.39396770	        -61.91369819	          0.45257623	          0.00000000	          0.10373568	          0.00000000	          0.00020411	          0.00000000	          0.00000000	          4.73310753	          0.00000000	
          3.02500000	          0.01730536	          0.05359403	          0.00467611	         -0.00004961	          0.00000000	         -0.00007974	        -24.46667664	        896.07285686	        -60.54644725	          0.45338180	          0.00000000	          0.10383489	          0.00000000	          0.00011925	          0.00000000	          0.00000000	          4.42445625	          0.00000000	
          3.03000000	          0.00960198	          0.03142654	          0.00319723	         -0.00003899	          0.00000000	         -0.00006476	        -22.46831923	        888.38899951	        -59.32888175	          0.45421143	          0.00000000	          0.10392984	          0.00000000	          0.00005539	          0.00000000	          0.00000000	          4.13459452	          0.00000000	
          3.03500000	          0.00390256	          0.01472550	          0.00199599	         -0.00002910	          0.00000000	         -0.00005003	        -20.53963863	        881.38565393	        -58.26350275	          0.45505908	          0.00000000	          0.10401780	          0.00000000	          0.00001007	          0.00000000	          0.00000000	          3.86357276	          0.00000000	
          3.04000000	         -0.00006102	          0.00285083	          0.00106780	         -0.00002046	          0.00000000	         -0.00003663	        -18.67066054	        875.11047620	        -57.34034039	          0.45591623	          0.00000000	          0.10409623	          0.00000000	         -0.00001980	          0.00000000	          0.00000000	          3.61126058	          0.00000000	
          3.04500000	         -0.00259796	         -0.00498962	          0.00038812	         -0.00001330	          0.00000000	         -0.00002514	        -16.85104626	        869.61533319	        -56.54046014	          0.45677420	          0.00000000	          0.10416357	          0.00000000	         -0.00003738	          0.00000000	          0.00000000	          3.37749455	          0.00000000	
          3.05000000	         -0.00401938	         -0.00962294	         -0.00007845	         -0.00000766	          0.00000000	         -0.00001578	        -15.07024589	        864.95279673	        -55.83984857	          0.45762676	          0.00000000	          0.10421878	          0.00000000	         -0.00004570	          0.00000000	          0.00000000	          3.16192517	          0.00000000	
          3.05500000	         -0.00461303	         -0.01183313	         -0.00037144	         -0.00000343	          0.00000000	         -0.00000853	        -13.31899634	        861.17662453	        -55.21466750	          0.45847084	          0.00000000	          0.10426205	          0.00000000	         -0.00004743	          0.00000000	          0.00000000	          2.96395123	          0.00000000	
          3.06000000	         -0.00462889	         -0.01231463	         -0.00052995	         -0.00000045	          0.00000000	         -0.00000321	        -11.59008202	        858.34031656	        -54.64692661	          0.45930662	          0.00000000	          0.10429446	          0.00000000	         -0.00004478	          0.00000000	          0.00000000	          2.78248745	          0.00000000	
          3.06500000	         -0.00427297	         -0.01164947	         -0.00058969	          0.00000150	          0.00000000	          0.00000046	         -9.87799866	        856.48728828	        -54.12696176	          0.46013687	          0.00000000	          0.10431650	          0.00000000	         -0.00003954	          0.00000000	          0.00000000	          2.61576912	          0.00000000	
          3.07000000	         -0.00370678	         -0.01030158	         -0.00058136	          0.00000263	          0.00000000	          0.00000277	         -8.17833701	        855.64455805	        -53.65294007	          0.46096552	          0.00000000	          0.10432924	          0.00000000	         -0.00003305	          0.00000000	          0.00000000	          2.46141246	          0.00000000	
          3.07500000	         -0.00305054	         -0.00862248	         -0.00053004	          0.00000314	          0.00000000	          0.00000404	         -6.48661427	        855.81865610	        -53.23026043	          0.46179788	          0.00000000	          0.10433445	          0.00000000	         -0.00002628	          0.00000000	          0.00000000	          2.31649329	          0.00000000	
          3.08000000	         -0.00238844	         -0.00686377	         -0.00045521	          0.00000323	          0.00000000	          0.00000453	         -4.79803319	        856.99250517	        -52.86896933	          0.46263946	          0.00000000	          0.10433425	          0.00000000	         -0.00001986	          0.00000000	          0.00000000	          2.17766205	          0.00000000	
          3.08500000	         -0.00177495	         -0.00519310	         -0.00037123	          0.00000303	          0.00000000	          0.00000449	         -3.10802561	        859.12521939	        -52.57999907	          0.46349521	          0.00000000	          0.10433085	          0.00000000	         -0.00001417	          0.00000000	          0.00000000	          2.04152473	          0.00000000	
          3.09000000	         -0.00124116	         -0.00371102	         -0.00028801	          0.00000266	          0.00000000	          0.00000411	         -1.41157814	        862.15634741	        -52.37237625	          0.46437080	          0.00000000	          0.10432598	          0.00000000	         -0.00000940	          0.00000000	          0.00000000	          1.90456098	          0.00000000	
          3.09500000	         -0.00080069	         -0.00246709	         -0.00021186	          0.00000221	          0.00000000	          0.00000354	          0.29722000	        866.01049875	        -52.25240790	          0.46527177	          0.00000000	          0.10432094	          0.00000000	         -0.00000560	          0.00000000	          0.00000000	          1.76304470	          0.00000000	
          3.10000000	         -0.00045489	         -0.00147427	         -0.00014627	          0.00000175	          0.00000000	          0.00000289	          2.02475046	        870.60406115	        -52.22438983	          0.46620358	          0.00000000	          0.10431781	          0.00000000	         -0.00000272	          0.00000000	          0.00000000	          1.61316588	          0.00000000	
          3.10500000	         -0.00019717	         -0.00072100	         -0.00009265	          0.00000131	          0.00000000	          0.00000225	          3.77709951	        875.84700662	        -52.29116776	          0.46717252	          0.00000000	          0.10431959	          0.00000000	         -0.00000066	          0.00000000	          0.00000000	          1.45138724	          0.00000000	
          3.11000000	         -0.00001630	         -0.00018091	         -0.00005093	          0.00000093	          0.00000000	          0.00000166	          5.55840578	        881.64091366	        -52.45339999	          0.46818621	          0.00000000	          0.10433031	          0.00000000	          0.00000072	          0.00000000	          0.00000000	          1.27499497	          0.00000000	
          3.11500000	          0.00010098	          0.00017974	         -0.00002015	          0.00000061	          0.00000000	          0.00000115	          7.36863234	        887.87758235	        -52.70855212	          0.46925456	          0.00000000	          0.10435516	          0.00000000	          0.00000154	          0.00000000	          0.00000000	          1.08236980	          0.00000000	
          3.12000000	          0.00016820	          0.00039680	          0.00000118	          0.00000036	          0.00000000	          0.00000073	          9.20240797	        894.44294135	        -53.05051835	          0.47038981	          0.00000000	          0.10439985	          0.00000000	          0.00000195	          0.00000000	          0.00000000	          0.87324340	          0.00000000	
          3.12500000	          0.00019800	          0.00050462	          0.00001477	          0.00000017	          0.00000000	          0.00000041	         11.04906932	        901.22488237	        -53.47009368	          0.47160628	          0.00000000	          0.10446974	          0.00000000	          0.00000206	          0.00000000	          0.00000000	          0.64894015	          0.00000000	
          3.13000000	          0.00020146	          0.00053385	          0.00002231	          0.00000003	          0.00000000	          0.00000017	         12.89410237	        908.11535126	        -53.95519999	          0.47292126	          0.00000000	          0.10456835	          0.00000000	          0.00000196	          0.00000000	          0.00000000	          0.41181080	          0.00000000	
          3.13500000	          0.00018774	          0.00051038	          0.00002539	         -0.00000006	          0.00000000	         -0.00000000	         14.72052194	        915.01379514	        -54.49170899	          0.47435410	          0.00000000	          0.10469677	          0.00000000	          0.00000175	          0.00000000	          0.00000000	          0.16409071	          0.00000000	
          3.14000000	          0.00016409	          0.00045496	          0.00002535	         -0.00000011	          0.00000000	         -0.00000011	         16.51036202	        921.83476909	        -55.06529496	          0.47592339	          0.00000000	          0.10485570	          0.00000000	          0.00000147	          0.00000000	          0.00000000	         -0.09233657	          0.00000000	
          3.14500000	          0.00013595	          0.00038344	          0.00002332	         -0.00000013	          0.00000000	         -0.00000017	         18.24660450	        928.51070691	        -55.66329911	          0.47764419	          0.00000000	          0.10504691	          0.00000000	          0.00000118	          0.00000000	          0.00000000	         -0.35573407	          0.00000000	
          3.15000000	          0.00010715	          0.00030725	          0.00002018	         -0.00000014	          0.00000000	         -0.00000019	         19.91397992	        934.98737279	        -56.27541607	          0.47952629	          0.00000000	          0.10527235	          0.00000000	          0.00000090	          0.00000000	          0.00000000	         -0.62468013	          0.00000000	
